<?xml version="1.0" encoding="utf-8" standalone="no"?>
<!DOCTYPE svg PUBLIC "-//W3C//DTD SVG 1.1//EN"
  "http://www.w3.org/Graphics/SVG/1.1/DTD/svg11.dtd">
<svg xmlns:xlink="http://www.w3.org/1999/xlink" width="423.957143pt" height="306.718125pt" viewBox="0 0 423.957143 306.718125" xmlns="http://www.w3.org/2000/svg" version="1.1">
 <metadata>
  <rdf:RDF xmlns:dc="http://purl.org/dc/elements/1.1/" xmlns:cc="http://creativecommons.org/ns#" xmlns:rdf="http://www.w3.org/1999/02/22-rdf-syntax-ns#">
   <cc:Work>
    <dc:type rdf:resource="http://purl.org/dc/dcmitype/StillImage"/>
    <dc:date>2024-11-17T16:10:23.830725</dc:date>
    <dc:format>image/svg+xml</dc:format>
    <dc:creator>
     <cc:Agent>
      <dc:title>Matplotlib v3.9.2, https://matplotlib.org/</dc:title>
     </cc:Agent>
    </dc:creator>
   </cc:Work>
  </rdf:RDF>
 </metadata>
 <defs>
  <style type="text/css">*{stroke-linejoin: round; stroke-linecap: butt}</style>
 </defs>
 <g id="figure_1">
  <g id="patch_1">
   <path d="M 0 306.718125 
L 423.957143 306.718125 
L 423.957143 0 
L 0 0 
z
" style="fill: #201c1c"/>
  </g>
  <g id="axes_1">
   <g id="patch_2">
    <path d="M 66.310938 70.111228 
L 401.110938 70.111228 
L 401.110938 22.318125 
L 66.310938 22.318125 
z
" style="fill: #201c1c"/>
   </g>
   <g id="patch_3">
    <path d="M 66.310938 24.490539 
L 381.979509 24.490539 
L 381.979509 33.637544 
L 66.310938 33.637544 
z
" clip-path="url(#pa845f48d5d)" style="fill: #1f77b4"/>
   </g>
   <g id="patch_4">
    <path d="M 66.310938 35.924296 
L 385.16808 35.924296 
L 385.16808 45.071301 
L 66.310938 45.071301 
z
" clip-path="url(#pa845f48d5d)" style="fill: #1f77b4"/>
   </g>
   <g id="patch_5">
    <path d="M 66.310938 47.358052 
L 385.16808 47.358052 
L 385.16808 56.505058 
L 66.310938 56.505058 
z
" clip-path="url(#pa845f48d5d)" style="fill: #1f77b4"/>
   </g>
   <g id="patch_6">
    <path d="M 66.310938 58.791809 
L 95.00808 58.791809 
L 95.00808 67.938815 
L 66.310938 67.938815 
z
" clip-path="url(#pa845f48d5d)" style="fill: #1f77b4"/>
   </g>
   <g id="patch_7">
    <path d="M 66.310938 24.490539 
L 381.979509 24.490539 
L 381.979509 33.637544 
L 66.310938 33.637544 
z
" clip-path="url(#pa845f48d5d)" style="fill: #ff7f0e"/>
   </g>
   <g id="patch_8">
    <path d="M 66.310938 35.924296 
L 385.16808 35.924296 
L 385.16808 45.071301 
L 66.310938 45.071301 
z
" clip-path="url(#pa845f48d5d)" style="fill: #ff7f0e"/>
   </g>
   <g id="patch_9">
    <path d="M 66.310938 47.358052 
L 385.16808 47.358052 
L 385.16808 56.505058 
L 66.310938 56.505058 
z
" clip-path="url(#pa845f48d5d)" style="fill: #ff7f0e"/>
   </g>
   <g id="patch_10">
    <path d="M 66.310938 58.791809 
L 95.00808 58.791809 
L 95.00808 67.938815 
L 66.310938 67.938815 
z
" clip-path="url(#pa845f48d5d)" style="fill: #ff7f0e"/>
   </g>
   <g id="patch_11">
    <path d="M 66.310938 24.490539 
L 381.979509 24.490539 
L 381.979509 33.637544 
L 66.310938 33.637544 
z
" clip-path="url(#pa845f48d5d)" style="fill: #800080"/>
   </g>
   <g id="patch_12">
    <path d="M 66.310938 35.924296 
L 385.16808 35.924296 
L 385.16808 45.071301 
L 66.310938 45.071301 
z
" clip-path="url(#pa845f48d5d)" style="fill: #ffa500"/>
   </g>
   <g id="patch_13">
    <path d="M 66.310938 47.358052 
L 385.16808 47.358052 
L 385.16808 56.505058 
L 66.310938 56.505058 
z
" clip-path="url(#pa845f48d5d)" style="fill: #008000"/>
   </g>
   <g id="patch_14">
    <path d="M 66.310938 58.791809 
L 95.00808 58.791809 
L 95.00808 67.938815 
L 66.310938 67.938815 
z
" clip-path="url(#pa845f48d5d)" style="fill: #ff0000"/>
   </g>
   <g id="matplotlib.axis_1">
    <g id="xtick_1"/>
    <g id="xtick_2"/>
    <g id="xtick_3"/>
    <g id="xtick_4"/>
    <g id="xtick_5"/>
    <g id="xtick_6"/>
   </g>
   <g id="matplotlib.axis_2">
    <g id="ytick_1">
     <g id="text_1">
      <!-- Vocab -->
      <g style="fill: #ffffff" transform="translate(29.151563 32.86326) scale(0.1 -0.1)">
       <defs>
        <path id="DejaVuSans-56" d="M 1831 0 
L 50 4666 
L 709 4666 
L 2188 738 
L 3669 4666 
L 4325 4666 
L 2547 0 
L 1831 0 
z
" transform="scale(0.015625)"/>
        <path id="DejaVuSans-6f" d="M 1959 3097 
Q 1497 3097 1228 2736 
Q 959 2375 959 1747 
Q 959 1119 1226 758 
Q 1494 397 1959 397 
Q 2419 397 2687 759 
Q 2956 1122 2956 1747 
Q 2956 2369 2687 2733 
Q 2419 3097 1959 3097 
z
M 1959 3584 
Q 2709 3584 3137 3096 
Q 3566 2609 3566 1747 
Q 3566 888 3137 398 
Q 2709 -91 1959 -91 
Q 1206 -91 779 398 
Q 353 888 353 1747 
Q 353 2609 779 3096 
Q 1206 3584 1959 3584 
z
" transform="scale(0.015625)"/>
        <path id="DejaVuSans-63" d="M 3122 3366 
L 3122 2828 
Q 2878 2963 2633 3030 
Q 2388 3097 2138 3097 
Q 1578 3097 1268 2742 
Q 959 2388 959 1747 
Q 959 1106 1268 751 
Q 1578 397 2138 397 
Q 2388 397 2633 464 
Q 2878 531 3122 666 
L 3122 134 
Q 2881 22 2623 -34 
Q 2366 -91 2075 -91 
Q 1284 -91 818 406 
Q 353 903 353 1747 
Q 353 2603 823 3093 
Q 1294 3584 2113 3584 
Q 2378 3584 2631 3529 
Q 2884 3475 3122 3366 
z
" transform="scale(0.015625)"/>
        <path id="DejaVuSans-61" d="M 2194 1759 
Q 1497 1759 1228 1600 
Q 959 1441 959 1056 
Q 959 750 1161 570 
Q 1363 391 1709 391 
Q 2188 391 2477 730 
Q 2766 1069 2766 1631 
L 2766 1759 
L 2194 1759 
z
M 3341 1997 
L 3341 0 
L 2766 0 
L 2766 531 
Q 2569 213 2275 61 
Q 1981 -91 1556 -91 
Q 1019 -91 701 211 
Q 384 513 384 1019 
Q 384 1609 779 1909 
Q 1175 2209 1959 2209 
L 2766 2209 
L 2766 2266 
Q 2766 2663 2505 2880 
Q 2244 3097 1772 3097 
Q 1472 3097 1187 3025 
Q 903 2953 641 2809 
L 641 3341 
Q 956 3463 1253 3523 
Q 1550 3584 1831 3584 
Q 2591 3584 2966 3190 
Q 3341 2797 3341 1997 
z
" transform="scale(0.015625)"/>
        <path id="DejaVuSans-62" d="M 3116 1747 
Q 3116 2381 2855 2742 
Q 2594 3103 2138 3103 
Q 1681 3103 1420 2742 
Q 1159 2381 1159 1747 
Q 1159 1113 1420 752 
Q 1681 391 2138 391 
Q 2594 391 2855 752 
Q 3116 1113 3116 1747 
z
M 1159 2969 
Q 1341 3281 1617 3432 
Q 1894 3584 2278 3584 
Q 2916 3584 3314 3078 
Q 3713 2572 3713 1747 
Q 3713 922 3314 415 
Q 2916 -91 2278 -91 
Q 1894 -91 1617 61 
Q 1341 213 1159 525 
L 1159 0 
L 581 0 
L 581 4863 
L 1159 4863 
L 1159 2969 
z
" transform="scale(0.015625)"/>
       </defs>
       <use xlink:href="#DejaVuSans-56"/>
       <use xlink:href="#DejaVuSans-6f" x="60.658203"/>
       <use xlink:href="#DejaVuSans-63" x="121.839844"/>
       <use xlink:href="#DejaVuSans-61" x="176.820312"/>
       <use xlink:href="#DejaVuSans-62" x="238.099609"/>
      </g>
     </g>
    </g>
    <g id="ytick_2">
     <g id="text_2">
      <!-- Kanji -->
      <g style="fill: #ffffff" transform="translate(34.90625 44.297017) scale(0.1 -0.1)">
       <defs>
        <path id="DejaVuSans-4b" d="M 628 4666 
L 1259 4666 
L 1259 2694 
L 3353 4666 
L 4166 4666 
L 1850 2491 
L 4331 0 
L 3500 0 
L 1259 2247 
L 1259 0 
L 628 0 
L 628 4666 
z
" transform="scale(0.015625)"/>
        <path id="DejaVuSans-6e" d="M 3513 2113 
L 3513 0 
L 2938 0 
L 2938 2094 
Q 2938 2591 2744 2837 
Q 2550 3084 2163 3084 
Q 1697 3084 1428 2787 
Q 1159 2491 1159 1978 
L 1159 0 
L 581 0 
L 581 3500 
L 1159 3500 
L 1159 2956 
Q 1366 3272 1645 3428 
Q 1925 3584 2291 3584 
Q 2894 3584 3203 3211 
Q 3513 2838 3513 2113 
z
" transform="scale(0.015625)"/>
        <path id="DejaVuSans-6a" d="M 603 3500 
L 1178 3500 
L 1178 -63 
Q 1178 -731 923 -1031 
Q 669 -1331 103 -1331 
L -116 -1331 
L -116 -844 
L 38 -844 
Q 366 -844 484 -692 
Q 603 -541 603 -63 
L 603 3500 
z
M 603 4863 
L 1178 4863 
L 1178 4134 
L 603 4134 
L 603 4863 
z
" transform="scale(0.015625)"/>
        <path id="DejaVuSans-69" d="M 603 3500 
L 1178 3500 
L 1178 0 
L 603 0 
L 603 3500 
z
M 603 4863 
L 1178 4863 
L 1178 4134 
L 603 4134 
L 603 4863 
z
" transform="scale(0.015625)"/>
       </defs>
       <use xlink:href="#DejaVuSans-4b"/>
       <use xlink:href="#DejaVuSans-61" x="63.826172"/>
       <use xlink:href="#DejaVuSans-6e" x="125.105469"/>
       <use xlink:href="#DejaVuSans-6a" x="188.484375"/>
       <use xlink:href="#DejaVuSans-69" x="216.267578"/>
      </g>
     </g>
    </g>
    <g id="ytick_3">
     <g id="text_3">
      <!-- Grammar -->
      <g style="fill: #ffffff" transform="translate(11.603125 55.730774) scale(0.1 -0.1)">
       <defs>
        <path id="DejaVuSans-47" d="M 3809 666 
L 3809 1919 
L 2778 1919 
L 2778 2438 
L 4434 2438 
L 4434 434 
Q 4069 175 3628 42 
Q 3188 -91 2688 -91 
Q 1594 -91 976 548 
Q 359 1188 359 2328 
Q 359 3472 976 4111 
Q 1594 4750 2688 4750 
Q 3144 4750 3555 4637 
Q 3966 4525 4313 4306 
L 4313 3634 
Q 3963 3931 3569 4081 
Q 3175 4231 2741 4231 
Q 1884 4231 1454 3753 
Q 1025 3275 1025 2328 
Q 1025 1384 1454 906 
Q 1884 428 2741 428 
Q 3075 428 3337 486 
Q 3600 544 3809 666 
z
" transform="scale(0.015625)"/>
        <path id="DejaVuSans-72" d="M 2631 2963 
Q 2534 3019 2420 3045 
Q 2306 3072 2169 3072 
Q 1681 3072 1420 2755 
Q 1159 2438 1159 1844 
L 1159 0 
L 581 0 
L 581 3500 
L 1159 3500 
L 1159 2956 
Q 1341 3275 1631 3429 
Q 1922 3584 2338 3584 
Q 2397 3584 2469 3576 
Q 2541 3569 2628 3553 
L 2631 2963 
z
" transform="scale(0.015625)"/>
        <path id="DejaVuSans-6d" d="M 3328 2828 
Q 3544 3216 3844 3400 
Q 4144 3584 4550 3584 
Q 5097 3584 5394 3201 
Q 5691 2819 5691 2113 
L 5691 0 
L 5113 0 
L 5113 2094 
Q 5113 2597 4934 2840 
Q 4756 3084 4391 3084 
Q 3944 3084 3684 2787 
Q 3425 2491 3425 1978 
L 3425 0 
L 2847 0 
L 2847 2094 
Q 2847 2600 2669 2842 
Q 2491 3084 2119 3084 
Q 1678 3084 1418 2786 
Q 1159 2488 1159 1978 
L 1159 0 
L 581 0 
L 581 3500 
L 1159 3500 
L 1159 2956 
Q 1356 3278 1631 3431 
Q 1906 3584 2284 3584 
Q 2666 3584 2933 3390 
Q 3200 3197 3328 2828 
z
" transform="scale(0.015625)"/>
       </defs>
       <use xlink:href="#DejaVuSans-47"/>
       <use xlink:href="#DejaVuSans-72" x="77.490234"/>
       <use xlink:href="#DejaVuSans-61" x="118.603516"/>
       <use xlink:href="#DejaVuSans-6d" x="179.882812"/>
       <use xlink:href="#DejaVuSans-6d" x="277.294922"/>
       <use xlink:href="#DejaVuSans-61" x="374.707031"/>
       <use xlink:href="#DejaVuSans-72" x="435.986328"/>
      </g>
     </g>
    </g>
    <g id="ytick_4">
     <g id="text_4">
      <!-- Sentences -->
      <g style="fill: #ffffff" transform="translate(7.2 67.164531) scale(0.1 -0.1)">
       <defs>
        <path id="DejaVuSans-53" d="M 3425 4513 
L 3425 3897 
Q 3066 4069 2747 4153 
Q 2428 4238 2131 4238 
Q 1616 4238 1336 4038 
Q 1056 3838 1056 3469 
Q 1056 3159 1242 3001 
Q 1428 2844 1947 2747 
L 2328 2669 
Q 3034 2534 3370 2195 
Q 3706 1856 3706 1288 
Q 3706 609 3251 259 
Q 2797 -91 1919 -91 
Q 1588 -91 1214 -16 
Q 841 59 441 206 
L 441 856 
Q 825 641 1194 531 
Q 1563 422 1919 422 
Q 2459 422 2753 634 
Q 3047 847 3047 1241 
Q 3047 1584 2836 1778 
Q 2625 1972 2144 2069 
L 1759 2144 
Q 1053 2284 737 2584 
Q 422 2884 422 3419 
Q 422 4038 858 4394 
Q 1294 4750 2059 4750 
Q 2388 4750 2728 4690 
Q 3069 4631 3425 4513 
z
" transform="scale(0.015625)"/>
        <path id="DejaVuSans-65" d="M 3597 1894 
L 3597 1613 
L 953 1613 
Q 991 1019 1311 708 
Q 1631 397 2203 397 
Q 2534 397 2845 478 
Q 3156 559 3463 722 
L 3463 178 
Q 3153 47 2828 -22 
Q 2503 -91 2169 -91 
Q 1331 -91 842 396 
Q 353 884 353 1716 
Q 353 2575 817 3079 
Q 1281 3584 2069 3584 
Q 2775 3584 3186 3129 
Q 3597 2675 3597 1894 
z
M 3022 2063 
Q 3016 2534 2758 2815 
Q 2500 3097 2075 3097 
Q 1594 3097 1305 2825 
Q 1016 2553 972 2059 
L 3022 2063 
z
" transform="scale(0.015625)"/>
        <path id="DejaVuSans-74" d="M 1172 4494 
L 1172 3500 
L 2356 3500 
L 2356 3053 
L 1172 3053 
L 1172 1153 
Q 1172 725 1289 603 
Q 1406 481 1766 481 
L 2356 481 
L 2356 0 
L 1766 0 
Q 1100 0 847 248 
Q 594 497 594 1153 
L 594 3053 
L 172 3053 
L 172 3500 
L 594 3500 
L 594 4494 
L 1172 4494 
z
" transform="scale(0.015625)"/>
        <path id="DejaVuSans-73" d="M 2834 3397 
L 2834 2853 
Q 2591 2978 2328 3040 
Q 2066 3103 1784 3103 
Q 1356 3103 1142 2972 
Q 928 2841 928 2578 
Q 928 2378 1081 2264 
Q 1234 2150 1697 2047 
L 1894 2003 
Q 2506 1872 2764 1633 
Q 3022 1394 3022 966 
Q 3022 478 2636 193 
Q 2250 -91 1575 -91 
Q 1294 -91 989 -36 
Q 684 19 347 128 
L 347 722 
Q 666 556 975 473 
Q 1284 391 1588 391 
Q 1994 391 2212 530 
Q 2431 669 2431 922 
Q 2431 1156 2273 1281 
Q 2116 1406 1581 1522 
L 1381 1569 
Q 847 1681 609 1914 
Q 372 2147 372 2553 
Q 372 3047 722 3315 
Q 1072 3584 1716 3584 
Q 2034 3584 2315 3537 
Q 2597 3491 2834 3397 
z
" transform="scale(0.015625)"/>
       </defs>
       <use xlink:href="#DejaVuSans-53"/>
       <use xlink:href="#DejaVuSans-65" x="63.476562"/>
       <use xlink:href="#DejaVuSans-6e" x="125"/>
       <use xlink:href="#DejaVuSans-74" x="188.378906"/>
       <use xlink:href="#DejaVuSans-65" x="227.587891"/>
       <use xlink:href="#DejaVuSans-6e" x="289.111328"/>
       <use xlink:href="#DejaVuSans-63" x="352.490234"/>
       <use xlink:href="#DejaVuSans-65" x="407.470703"/>
       <use xlink:href="#DejaVuSans-73" x="468.994141"/>
      </g>
     </g>
    </g>
   </g>
   <g id="text_5">
    <!-- 99% -->
    <g style="fill: #ffffff" transform="translate(384.979509 31.823417) scale(0.1 -0.1)">
     <defs>
      <path id="DejaVuSans-39" d="M 703 97 
L 703 672 
Q 941 559 1184 500 
Q 1428 441 1663 441 
Q 2288 441 2617 861 
Q 2947 1281 2994 2138 
Q 2813 1869 2534 1725 
Q 2256 1581 1919 1581 
Q 1219 1581 811 2004 
Q 403 2428 403 3163 
Q 403 3881 828 4315 
Q 1253 4750 1959 4750 
Q 2769 4750 3195 4129 
Q 3622 3509 3622 2328 
Q 3622 1225 3098 567 
Q 2575 -91 1691 -91 
Q 1453 -91 1209 -44 
Q 966 3 703 97 
z
M 1959 2075 
Q 2384 2075 2632 2365 
Q 2881 2656 2881 3163 
Q 2881 3666 2632 3958 
Q 2384 4250 1959 4250 
Q 1534 4250 1286 3958 
Q 1038 3666 1038 3163 
Q 1038 2656 1286 2365 
Q 1534 2075 1959 2075 
z
" transform="scale(0.015625)"/>
      <path id="DejaVuSans-25" d="M 4653 2053 
Q 4381 2053 4226 1822 
Q 4072 1591 4072 1178 
Q 4072 772 4226 539 
Q 4381 306 4653 306 
Q 4919 306 5073 539 
Q 5228 772 5228 1178 
Q 5228 1588 5073 1820 
Q 4919 2053 4653 2053 
z
M 4653 2450 
Q 5147 2450 5437 2106 
Q 5728 1763 5728 1178 
Q 5728 594 5436 251 
Q 5144 -91 4653 -91 
Q 4153 -91 3862 251 
Q 3572 594 3572 1178 
Q 3572 1766 3864 2108 
Q 4156 2450 4653 2450 
z
M 1428 4353 
Q 1159 4353 1004 4120 
Q 850 3888 850 3481 
Q 850 3069 1003 2837 
Q 1156 2606 1428 2606 
Q 1700 2606 1854 2837 
Q 2009 3069 2009 3481 
Q 2009 3884 1853 4118 
Q 1697 4353 1428 4353 
z
M 4250 4750 
L 4750 4750 
L 1831 -91 
L 1331 -91 
L 4250 4750 
z
M 1428 4750 
Q 1922 4750 2215 4408 
Q 2509 4066 2509 3481 
Q 2509 2891 2217 2550 
Q 1925 2209 1428 2209 
Q 931 2209 642 2551 
Q 353 2894 353 3481 
Q 353 4063 643 4406 
Q 934 4750 1428 4750 
z
" transform="scale(0.015625)"/>
     </defs>
     <use xlink:href="#DejaVuSans-39"/>
     <use xlink:href="#DejaVuSans-39" x="63.623047"/>
     <use xlink:href="#DejaVuSans-25" x="127.246094"/>
    </g>
   </g>
   <g id="text_6">
    <!-- 100% -->
    <g style="fill: #ffffff" transform="translate(388.16808 43.257173) scale(0.1 -0.1)">
     <defs>
      <path id="DejaVuSans-31" d="M 794 531 
L 1825 531 
L 1825 4091 
L 703 3866 
L 703 4441 
L 1819 4666 
L 2450 4666 
L 2450 531 
L 3481 531 
L 3481 0 
L 794 0 
L 794 531 
z
" transform="scale(0.015625)"/>
      <path id="DejaVuSans-30" d="M 2034 4250 
Q 1547 4250 1301 3770 
Q 1056 3291 1056 2328 
Q 1056 1369 1301 889 
Q 1547 409 2034 409 
Q 2525 409 2770 889 
Q 3016 1369 3016 2328 
Q 3016 3291 2770 3770 
Q 2525 4250 2034 4250 
z
M 2034 4750 
Q 2819 4750 3233 4129 
Q 3647 3509 3647 2328 
Q 3647 1150 3233 529 
Q 2819 -91 2034 -91 
Q 1250 -91 836 529 
Q 422 1150 422 2328 
Q 422 3509 836 4129 
Q 1250 4750 2034 4750 
z
" transform="scale(0.015625)"/>
     </defs>
     <use xlink:href="#DejaVuSans-31"/>
     <use xlink:href="#DejaVuSans-30" x="63.623047"/>
     <use xlink:href="#DejaVuSans-30" x="127.246094"/>
     <use xlink:href="#DejaVuSans-25" x="190.869141"/>
    </g>
   </g>
   <g id="text_7">
    <!-- 100% -->
    <g style="fill: #ffffff" transform="translate(388.16808 54.69093) scale(0.1 -0.1)">
     <use xlink:href="#DejaVuSans-31"/>
     <use xlink:href="#DejaVuSans-30" x="63.623047"/>
     <use xlink:href="#DejaVuSans-30" x="127.246094"/>
     <use xlink:href="#DejaVuSans-25" x="190.869141"/>
    </g>
   </g>
   <g id="text_8">
    <!-- 9% -->
    <g style="fill: #ffffff" transform="translate(98.00808 66.124687) scale(0.1 -0.1)">
     <use xlink:href="#DejaVuSans-39"/>
     <use xlink:href="#DejaVuSans-25" x="63.623047"/>
    </g>
   </g>
   <g id="text_9">
    <!-- N5 -->
    <g style="fill: #ffffff" transform="translate(225.404687 16.318125) scale(0.12 -0.12)">
     <defs>
      <path id="DejaVuSans-4e" d="M 628 4666 
L 1478 4666 
L 3547 763 
L 3547 4666 
L 4159 4666 
L 4159 0 
L 3309 0 
L 1241 3903 
L 1241 0 
L 628 0 
L 628 4666 
z
" transform="scale(0.015625)"/>
      <path id="DejaVuSans-35" d="M 691 4666 
L 3169 4666 
L 3169 4134 
L 1269 4134 
L 1269 2991 
Q 1406 3038 1543 3061 
Q 1681 3084 1819 3084 
Q 2600 3084 3056 2656 
Q 3513 2228 3513 1497 
Q 3513 744 3044 326 
Q 2575 -91 1722 -91 
Q 1428 -91 1123 -41 
Q 819 9 494 109 
L 494 744 
Q 775 591 1075 516 
Q 1375 441 1709 441 
Q 2250 441 2565 725 
Q 2881 1009 2881 1497 
Q 2881 1984 2565 2268 
Q 2250 2553 1709 2553 
Q 1456 2553 1204 2497 
Q 953 2441 691 2322 
L 691 4666 
z
" transform="scale(0.015625)"/>
     </defs>
     <use xlink:href="#DejaVuSans-4e"/>
     <use xlink:href="#DejaVuSans-35" x="74.804688"/>
    </g>
   </g>
  </g>
  <g id="axes_2">
   <g id="patch_15">
    <path d="M 66.310938 127.462953 
L 401.110938 127.462953 
L 401.110938 79.669849 
L 66.310938 79.669849 
z
" style="fill: #201c1c"/>
   </g>
   <g id="patch_16">
    <path d="M 66.310938 81.842263 
L 216.173795 81.842263 
L 216.173795 90.989268 
L 66.310938 90.989268 
z
" clip-path="url(#p92727446ff)" style="fill: #1f77b4"/>
   </g>
   <g id="patch_17">
    <path d="M 66.310938 93.27602 
L 385.16808 93.27602 
L 385.16808 102.423025 
L 66.310938 102.423025 
z
" clip-path="url(#p92727446ff)" style="fill: #1f77b4"/>
   </g>
   <g id="patch_18">
    <path d="M 66.310938 104.709777 
L 123.705223 104.709777 
L 123.705223 113.856782 
L 66.310938 113.856782 
z
" clip-path="url(#p92727446ff)" style="fill: #1f77b4"/>
   </g>
   <g id="patch_19">
    <path d="M 66.310938 116.143533 
L 79.065223 116.143533 
L 79.065223 125.290539 
L 66.310938 125.290539 
z
" clip-path="url(#p92727446ff)" style="fill: #1f77b4"/>
   </g>
   <g id="patch_20">
    <path d="M 66.310938 81.842263 
L 216.173795 81.842263 
L 216.173795 90.989268 
L 66.310938 90.989268 
z
" clip-path="url(#p92727446ff)" style="fill: #ff7f0e"/>
   </g>
   <g id="patch_21">
    <path d="M 66.310938 93.27602 
L 385.16808 93.27602 
L 385.16808 102.423025 
L 66.310938 102.423025 
z
" clip-path="url(#p92727446ff)" style="fill: #ff7f0e"/>
   </g>
   <g id="patch_22">
    <path d="M 66.310938 104.709777 
L 123.705223 104.709777 
L 123.705223 113.856782 
L 66.310938 113.856782 
z
" clip-path="url(#p92727446ff)" style="fill: #ff7f0e"/>
   </g>
   <g id="patch_23">
    <path d="M 66.310938 116.143533 
L 79.065223 116.143533 
L 79.065223 125.290539 
L 66.310938 125.290539 
z
" clip-path="url(#p92727446ff)" style="fill: #ff7f0e"/>
   </g>
   <g id="patch_24">
    <path d="M 66.310938 81.842263 
L 216.173795 81.842263 
L 216.173795 90.989268 
L 66.310938 90.989268 
z
" clip-path="url(#p92727446ff)" style="fill: #800080"/>
   </g>
   <g id="patch_25">
    <path d="M 66.310938 93.27602 
L 385.16808 93.27602 
L 385.16808 102.423025 
L 66.310938 102.423025 
z
" clip-path="url(#p92727446ff)" style="fill: #ffa500"/>
   </g>
   <g id="patch_26">
    <path d="M 66.310938 104.709777 
L 123.705223 104.709777 
L 123.705223 113.856782 
L 66.310938 113.856782 
z
" clip-path="url(#p92727446ff)" style="fill: #008000"/>
   </g>
   <g id="patch_27">
    <path d="M 66.310938 116.143533 
L 79.065223 116.143533 
L 79.065223 125.290539 
L 66.310938 125.290539 
z
" clip-path="url(#p92727446ff)" style="fill: #ff0000"/>
   </g>
   <g id="matplotlib.axis_3">
    <g id="xtick_7"/>
    <g id="xtick_8"/>
    <g id="xtick_9"/>
    <g id="xtick_10"/>
    <g id="xtick_11"/>
    <g id="xtick_12"/>
   </g>
   <g id="matplotlib.axis_4">
    <g id="ytick_5">
     <g id="text_10">
      <!-- Vocab -->
      <g style="fill: #ffffff" transform="translate(29.151563 90.214984) scale(0.1 -0.1)">
       <use xlink:href="#DejaVuSans-56"/>
       <use xlink:href="#DejaVuSans-6f" x="60.658203"/>
       <use xlink:href="#DejaVuSans-63" x="121.839844"/>
       <use xlink:href="#DejaVuSans-61" x="176.820312"/>
       <use xlink:href="#DejaVuSans-62" x="238.099609"/>
      </g>
     </g>
    </g>
    <g id="ytick_6">
     <g id="text_11">
      <!-- Kanji -->
      <g style="fill: #ffffff" transform="translate(34.90625 101.648741) scale(0.1 -0.1)">
       <use xlink:href="#DejaVuSans-4b"/>
       <use xlink:href="#DejaVuSans-61" x="63.826172"/>
       <use xlink:href="#DejaVuSans-6e" x="125.105469"/>
       <use xlink:href="#DejaVuSans-6a" x="188.484375"/>
       <use xlink:href="#DejaVuSans-69" x="216.267578"/>
      </g>
     </g>
    </g>
    <g id="ytick_7">
     <g id="text_12">
      <!-- Grammar -->
      <g style="fill: #ffffff" transform="translate(11.603125 113.082498) scale(0.1 -0.1)">
       <use xlink:href="#DejaVuSans-47"/>
       <use xlink:href="#DejaVuSans-72" x="77.490234"/>
       <use xlink:href="#DejaVuSans-61" x="118.603516"/>
       <use xlink:href="#DejaVuSans-6d" x="179.882812"/>
       <use xlink:href="#DejaVuSans-6d" x="277.294922"/>
       <use xlink:href="#DejaVuSans-61" x="374.707031"/>
       <use xlink:href="#DejaVuSans-72" x="435.986328"/>
      </g>
     </g>
    </g>
    <g id="ytick_8">
     <g id="text_13">
      <!-- Sentences -->
      <g style="fill: #ffffff" transform="translate(7.2 124.516255) scale(0.1 -0.1)">
       <use xlink:href="#DejaVuSans-53"/>
       <use xlink:href="#DejaVuSans-65" x="63.476562"/>
       <use xlink:href="#DejaVuSans-6e" x="125"/>
       <use xlink:href="#DejaVuSans-74" x="188.378906"/>
       <use xlink:href="#DejaVuSans-65" x="227.587891"/>
       <use xlink:href="#DejaVuSans-6e" x="289.111328"/>
       <use xlink:href="#DejaVuSans-63" x="352.490234"/>
       <use xlink:href="#DejaVuSans-65" x="407.470703"/>
       <use xlink:href="#DejaVuSans-73" x="468.994141"/>
      </g>
     </g>
    </g>
   </g>
   <g id="text_14">
    <!-- 47% -->
    <g style="fill: #ffffff" transform="translate(219.173795 89.175141) scale(0.1 -0.1)">
     <defs>
      <path id="DejaVuSans-34" d="M 2419 4116 
L 825 1625 
L 2419 1625 
L 2419 4116 
z
M 2253 4666 
L 3047 4666 
L 3047 1625 
L 3713 1625 
L 3713 1100 
L 3047 1100 
L 3047 0 
L 2419 0 
L 2419 1100 
L 313 1100 
L 313 1709 
L 2253 4666 
z
" transform="scale(0.015625)"/>
      <path id="DejaVuSans-37" d="M 525 4666 
L 3525 4666 
L 3525 4397 
L 1831 0 
L 1172 0 
L 2766 4134 
L 525 4134 
L 525 4666 
z
" transform="scale(0.015625)"/>
     </defs>
     <use xlink:href="#DejaVuSans-34"/>
     <use xlink:href="#DejaVuSans-37" x="63.623047"/>
     <use xlink:href="#DejaVuSans-25" x="127.246094"/>
    </g>
   </g>
   <g id="text_15">
    <!-- 100% -->
    <g style="fill: #ffffff" transform="translate(388.16808 100.608897) scale(0.1 -0.1)">
     <use xlink:href="#DejaVuSans-31"/>
     <use xlink:href="#DejaVuSans-30" x="63.623047"/>
     <use xlink:href="#DejaVuSans-30" x="127.246094"/>
     <use xlink:href="#DejaVuSans-25" x="190.869141"/>
    </g>
   </g>
   <g id="text_16">
    <!-- 18% -->
    <g style="fill: #ffffff" transform="translate(126.705223 112.042654) scale(0.1 -0.1)">
     <defs>
      <path id="DejaVuSans-38" d="M 2034 2216 
Q 1584 2216 1326 1975 
Q 1069 1734 1069 1313 
Q 1069 891 1326 650 
Q 1584 409 2034 409 
Q 2484 409 2743 651 
Q 3003 894 3003 1313 
Q 3003 1734 2745 1975 
Q 2488 2216 2034 2216 
z
M 1403 2484 
Q 997 2584 770 2862 
Q 544 3141 544 3541 
Q 544 4100 942 4425 
Q 1341 4750 2034 4750 
Q 2731 4750 3128 4425 
Q 3525 4100 3525 3541 
Q 3525 3141 3298 2862 
Q 3072 2584 2669 2484 
Q 3125 2378 3379 2068 
Q 3634 1759 3634 1313 
Q 3634 634 3220 271 
Q 2806 -91 2034 -91 
Q 1263 -91 848 271 
Q 434 634 434 1313 
Q 434 1759 690 2068 
Q 947 2378 1403 2484 
z
M 1172 3481 
Q 1172 3119 1398 2916 
Q 1625 2713 2034 2713 
Q 2441 2713 2670 2916 
Q 2900 3119 2900 3481 
Q 2900 3844 2670 4047 
Q 2441 4250 2034 4250 
Q 1625 4250 1398 4047 
Q 1172 3844 1172 3481 
z
" transform="scale(0.015625)"/>
     </defs>
     <use xlink:href="#DejaVuSans-31"/>
     <use xlink:href="#DejaVuSans-38" x="63.623047"/>
     <use xlink:href="#DejaVuSans-25" x="127.246094"/>
    </g>
   </g>
   <g id="text_17">
    <!-- 4% -->
    <g style="fill: #ffffff" transform="translate(82.065223 123.476411) scale(0.1 -0.1)">
     <use xlink:href="#DejaVuSans-34"/>
     <use xlink:href="#DejaVuSans-25" x="63.623047"/>
    </g>
   </g>
   <g id="text_18">
    <!-- N4 -->
    <g style="fill: #ffffff" transform="translate(225.404687 73.669849) scale(0.12 -0.12)">
     <use xlink:href="#DejaVuSans-4e"/>
     <use xlink:href="#DejaVuSans-34" x="74.804688"/>
    </g>
   </g>
  </g>
  <g id="axes_3">
   <g id="patch_28">
    <path d="M 66.310938 184.814677 
L 401.110938 184.814677 
L 401.110938 137.021573 
L 66.310938 137.021573 
z
" style="fill: #201c1c"/>
   </g>
   <g id="patch_29">
    <path d="M 66.310938 139.193987 
L 98.196652 139.193987 
L 98.196652 148.340993 
L 66.310938 148.340993 
z
" clip-path="url(#p30e7d4565f)" style="fill: #1f77b4"/>
   </g>
   <g id="patch_30">
    <path d="M 66.310938 150.627744 
L 385.16808 150.627744 
L 385.16808 159.774749 
L 66.310938 159.774749 
z
" clip-path="url(#p30e7d4565f)" style="fill: #1f77b4"/>
   </g>
   <g id="patch_31">
    <path d="M 66.310938 162.061501 
L 75.876652 162.061501 
L 75.876652 171.208506 
L 66.310938 171.208506 
z
" clip-path="url(#p30e7d4565f)" style="fill: #1f77b4"/>
   </g>
   <g id="patch_32">
    <path d="M 66.310938 173.495257 
L 66.310938 173.495257 
L 66.310938 182.642263 
L 66.310938 182.642263 
z
" clip-path="url(#p30e7d4565f)" style="fill: #1f77b4"/>
   </g>
   <g id="patch_33">
    <path d="M 66.310938 139.193987 
L 98.196652 139.193987 
L 98.196652 148.340993 
L 66.310938 148.340993 
z
" clip-path="url(#p30e7d4565f)" style="fill: #ff7f0e"/>
   </g>
   <g id="patch_34">
    <path d="M 66.310938 150.627744 
L 385.16808 150.627744 
L 385.16808 159.774749 
L 66.310938 159.774749 
z
" clip-path="url(#p30e7d4565f)" style="fill: #ff7f0e"/>
   </g>
   <g id="patch_35">
    <path d="M 66.310938 162.061501 
L 75.876652 162.061501 
L 75.876652 171.208506 
L 66.310938 171.208506 
z
" clip-path="url(#p30e7d4565f)" style="fill: #ff7f0e"/>
   </g>
   <g id="patch_36">
    <path d="M 66.310938 173.495257 
L 66.310938 173.495257 
L 66.310938 182.642263 
L 66.310938 182.642263 
z
" clip-path="url(#p30e7d4565f)" style="fill: #ff7f0e"/>
   </g>
   <g id="patch_37">
    <path d="M 66.310938 139.193987 
L 98.196652 139.193987 
L 98.196652 148.340993 
L 66.310938 148.340993 
z
" clip-path="url(#p30e7d4565f)" style="fill: #800080"/>
   </g>
   <g id="patch_38">
    <path d="M 66.310938 150.627744 
L 385.16808 150.627744 
L 385.16808 159.774749 
L 66.310938 159.774749 
z
" clip-path="url(#p30e7d4565f)" style="fill: #ffa500"/>
   </g>
   <g id="patch_39">
    <path d="M 66.310938 162.061501 
L 75.876652 162.061501 
L 75.876652 171.208506 
L 66.310938 171.208506 
z
" clip-path="url(#p30e7d4565f)" style="fill: #008000"/>
   </g>
   <g id="patch_40">
    <path d="M 66.310938 173.495257 
L 66.310938 173.495257 
L 66.310938 182.642263 
L 66.310938 182.642263 
z
" clip-path="url(#p30e7d4565f)" style="fill: #ff0000"/>
   </g>
   <g id="matplotlib.axis_5">
    <g id="xtick_13"/>
    <g id="xtick_14"/>
    <g id="xtick_15"/>
    <g id="xtick_16"/>
    <g id="xtick_17"/>
    <g id="xtick_18"/>
   </g>
   <g id="matplotlib.axis_6">
    <g id="ytick_9">
     <g id="text_19">
      <!-- Vocab -->
      <g style="fill: #ffffff" transform="translate(29.151563 147.566709) scale(0.1 -0.1)">
       <use xlink:href="#DejaVuSans-56"/>
       <use xlink:href="#DejaVuSans-6f" x="60.658203"/>
       <use xlink:href="#DejaVuSans-63" x="121.839844"/>
       <use xlink:href="#DejaVuSans-61" x="176.820312"/>
       <use xlink:href="#DejaVuSans-62" x="238.099609"/>
      </g>
     </g>
    </g>
    <g id="ytick_10">
     <g id="text_20">
      <!-- Kanji -->
      <g style="fill: #ffffff" transform="translate(34.90625 159.000465) scale(0.1 -0.1)">
       <use xlink:href="#DejaVuSans-4b"/>
       <use xlink:href="#DejaVuSans-61" x="63.826172"/>
       <use xlink:href="#DejaVuSans-6e" x="125.105469"/>
       <use xlink:href="#DejaVuSans-6a" x="188.484375"/>
       <use xlink:href="#DejaVuSans-69" x="216.267578"/>
      </g>
     </g>
    </g>
    <g id="ytick_11">
     <g id="text_21">
      <!-- Grammar -->
      <g style="fill: #ffffff" transform="translate(11.603125 170.434222) scale(0.1 -0.1)">
       <use xlink:href="#DejaVuSans-47"/>
       <use xlink:href="#DejaVuSans-72" x="77.490234"/>
       <use xlink:href="#DejaVuSans-61" x="118.603516"/>
       <use xlink:href="#DejaVuSans-6d" x="179.882812"/>
       <use xlink:href="#DejaVuSans-6d" x="277.294922"/>
       <use xlink:href="#DejaVuSans-61" x="374.707031"/>
       <use xlink:href="#DejaVuSans-72" x="435.986328"/>
      </g>
     </g>
    </g>
    <g id="ytick_12">
     <g id="text_22">
      <!-- Sentences -->
      <g style="fill: #ffffff" transform="translate(7.2 181.867979) scale(0.1 -0.1)">
       <use xlink:href="#DejaVuSans-53"/>
       <use xlink:href="#DejaVuSans-65" x="63.476562"/>
       <use xlink:href="#DejaVuSans-6e" x="125"/>
       <use xlink:href="#DejaVuSans-74" x="188.378906"/>
       <use xlink:href="#DejaVuSans-65" x="227.587891"/>
       <use xlink:href="#DejaVuSans-6e" x="289.111328"/>
       <use xlink:href="#DejaVuSans-63" x="352.490234"/>
       <use xlink:href="#DejaVuSans-65" x="407.470703"/>
       <use xlink:href="#DejaVuSans-73" x="468.994141"/>
      </g>
     </g>
    </g>
   </g>
   <g id="text_23">
    <!-- 10% -->
    <g style="fill: #ffffff" transform="translate(101.196652 146.526865) scale(0.1 -0.1)">
     <use xlink:href="#DejaVuSans-31"/>
     <use xlink:href="#DejaVuSans-30" x="63.623047"/>
     <use xlink:href="#DejaVuSans-25" x="127.246094"/>
    </g>
   </g>
   <g id="text_24">
    <!-- 100% -->
    <g style="fill: #ffffff" transform="translate(388.16808 157.960622) scale(0.1 -0.1)">
     <use xlink:href="#DejaVuSans-31"/>
     <use xlink:href="#DejaVuSans-30" x="63.623047"/>
     <use xlink:href="#DejaVuSans-30" x="127.246094"/>
     <use xlink:href="#DejaVuSans-25" x="190.869141"/>
    </g>
   </g>
   <g id="text_25">
    <!-- 3% -->
    <g style="fill: #ffffff" transform="translate(78.876652 169.394378) scale(0.1 -0.1)">
     <defs>
      <path id="DejaVuSans-33" d="M 2597 2516 
Q 3050 2419 3304 2112 
Q 3559 1806 3559 1356 
Q 3559 666 3084 287 
Q 2609 -91 1734 -91 
Q 1441 -91 1130 -33 
Q 819 25 488 141 
L 488 750 
Q 750 597 1062 519 
Q 1375 441 1716 441 
Q 2309 441 2620 675 
Q 2931 909 2931 1356 
Q 2931 1769 2642 2001 
Q 2353 2234 1838 2234 
L 1294 2234 
L 1294 2753 
L 1863 2753 
Q 2328 2753 2575 2939 
Q 2822 3125 2822 3475 
Q 2822 3834 2567 4026 
Q 2313 4219 1838 4219 
Q 1578 4219 1281 4162 
Q 984 4106 628 3988 
L 628 4550 
Q 988 4650 1302 4700 
Q 1616 4750 1894 4750 
Q 2613 4750 3031 4423 
Q 3450 4097 3450 3541 
Q 3450 3153 3228 2886 
Q 3006 2619 2597 2516 
z
" transform="scale(0.015625)"/>
     </defs>
     <use xlink:href="#DejaVuSans-33"/>
     <use xlink:href="#DejaVuSans-25" x="63.623047"/>
    </g>
   </g>
   <g id="text_26">
    <!-- 0% -->
    <g style="fill: #ffffff" transform="translate(69.310938 180.828135) scale(0.1 -0.1)">
     <use xlink:href="#DejaVuSans-30"/>
     <use xlink:href="#DejaVuSans-25" x="63.623047"/>
    </g>
   </g>
   <g id="text_27">
    <!-- N3 -->
    <g style="fill: #ffffff" transform="translate(225.404687 131.021573) scale(0.12 -0.12)">
     <use xlink:href="#DejaVuSans-4e"/>
     <use xlink:href="#DejaVuSans-33" x="74.804688"/>
    </g>
   </g>
  </g>
  <g id="axes_4">
   <g id="patch_41">
    <path d="M 66.310938 242.166401 
L 401.110938 242.166401 
L 401.110938 194.373297 
L 66.310938 194.373297 
z
" style="fill: #201c1c"/>
   </g>
   <g id="patch_42">
    <path d="M 66.310938 196.545711 
L 75.876652 196.545711 
L 75.876652 205.692717 
L 66.310938 205.692717 
z
" clip-path="url(#p0180415274)" style="fill: #1f77b4"/>
   </g>
   <g id="patch_43">
    <path d="M 66.310938 207.979468 
L 385.16808 207.979468 
L 385.16808 217.126473 
L 66.310938 217.126473 
z
" clip-path="url(#p0180415274)" style="fill: #1f77b4"/>
   </g>
   <g id="patch_44">
    <path d="M 66.310938 219.413225 
L 66.310938 219.413225 
L 66.310938 228.56023 
L 66.310938 228.56023 
z
" clip-path="url(#p0180415274)" style="fill: #1f77b4"/>
   </g>
   <g id="patch_45">
    <path d="M 66.310938 230.846982 
L 66.310938 230.846982 
L 66.310938 239.993987 
L 66.310938 239.993987 
z
" clip-path="url(#p0180415274)" style="fill: #1f77b4"/>
   </g>
   <g id="patch_46">
    <path d="M 66.310938 196.545711 
L 75.876652 196.545711 
L 75.876652 205.692717 
L 66.310938 205.692717 
z
" clip-path="url(#p0180415274)" style="fill: #ff7f0e"/>
   </g>
   <g id="patch_47">
    <path d="M 66.310938 207.979468 
L 385.16808 207.979468 
L 385.16808 217.126473 
L 66.310938 217.126473 
z
" clip-path="url(#p0180415274)" style="fill: #ff7f0e"/>
   </g>
   <g id="patch_48">
    <path d="M 66.310938 219.413225 
L 66.310938 219.413225 
L 66.310938 228.56023 
L 66.310938 228.56023 
z
" clip-path="url(#p0180415274)" style="fill: #ff7f0e"/>
   </g>
   <g id="patch_49">
    <path d="M 66.310938 230.846982 
L 66.310938 230.846982 
L 66.310938 239.993987 
L 66.310938 239.993987 
z
" clip-path="url(#p0180415274)" style="fill: #ff7f0e"/>
   </g>
   <g id="patch_50">
    <path d="M 66.310938 196.545711 
L 75.876652 196.545711 
L 75.876652 205.692717 
L 66.310938 205.692717 
z
" clip-path="url(#p0180415274)" style="fill: #800080"/>
   </g>
   <g id="patch_51">
    <path d="M 66.310938 207.979468 
L 385.16808 207.979468 
L 385.16808 217.126473 
L 66.310938 217.126473 
z
" clip-path="url(#p0180415274)" style="fill: #ffa500"/>
   </g>
   <g id="patch_52">
    <path d="M 66.310938 219.413225 
L 66.310938 219.413225 
L 66.310938 228.56023 
L 66.310938 228.56023 
z
" clip-path="url(#p0180415274)" style="fill: #008000"/>
   </g>
   <g id="patch_53">
    <path d="M 66.310938 230.846982 
L 66.310938 230.846982 
L 66.310938 239.993987 
L 66.310938 239.993987 
z
" clip-path="url(#p0180415274)" style="fill: #ff0000"/>
   </g>
   <g id="matplotlib.axis_7">
    <g id="xtick_19"/>
    <g id="xtick_20"/>
    <g id="xtick_21"/>
    <g id="xtick_22"/>
    <g id="xtick_23"/>
    <g id="xtick_24"/>
   </g>
   <g id="matplotlib.axis_8">
    <g id="ytick_13">
     <g id="text_28">
      <!-- Vocab -->
      <g style="fill: #ffffff" transform="translate(29.151563 204.918433) scale(0.1 -0.1)">
       <use xlink:href="#DejaVuSans-56"/>
       <use xlink:href="#DejaVuSans-6f" x="60.658203"/>
       <use xlink:href="#DejaVuSans-63" x="121.839844"/>
       <use xlink:href="#DejaVuSans-61" x="176.820312"/>
       <use xlink:href="#DejaVuSans-62" x="238.099609"/>
      </g>
     </g>
    </g>
    <g id="ytick_14">
     <g id="text_29">
      <!-- Kanji -->
      <g style="fill: #ffffff" transform="translate(34.90625 216.352189) scale(0.1 -0.1)">
       <use xlink:href="#DejaVuSans-4b"/>
       <use xlink:href="#DejaVuSans-61" x="63.826172"/>
       <use xlink:href="#DejaVuSans-6e" x="125.105469"/>
       <use xlink:href="#DejaVuSans-6a" x="188.484375"/>
       <use xlink:href="#DejaVuSans-69" x="216.267578"/>
      </g>
     </g>
    </g>
    <g id="ytick_15">
     <g id="text_30">
      <!-- Grammar -->
      <g style="fill: #ffffff" transform="translate(11.603125 227.785946) scale(0.1 -0.1)">
       <use xlink:href="#DejaVuSans-47"/>
       <use xlink:href="#DejaVuSans-72" x="77.490234"/>
       <use xlink:href="#DejaVuSans-61" x="118.603516"/>
       <use xlink:href="#DejaVuSans-6d" x="179.882812"/>
       <use xlink:href="#DejaVuSans-6d" x="277.294922"/>
       <use xlink:href="#DejaVuSans-61" x="374.707031"/>
       <use xlink:href="#DejaVuSans-72" x="435.986328"/>
      </g>
     </g>
    </g>
    <g id="ytick_16">
     <g id="text_31">
      <!-- Sentences -->
      <g style="fill: #ffffff" transform="translate(7.2 239.219703) scale(0.1 -0.1)">
       <use xlink:href="#DejaVuSans-53"/>
       <use xlink:href="#DejaVuSans-65" x="63.476562"/>
       <use xlink:href="#DejaVuSans-6e" x="125"/>
       <use xlink:href="#DejaVuSans-74" x="188.378906"/>
       <use xlink:href="#DejaVuSans-65" x="227.587891"/>
       <use xlink:href="#DejaVuSans-6e" x="289.111328"/>
       <use xlink:href="#DejaVuSans-63" x="352.490234"/>
       <use xlink:href="#DejaVuSans-65" x="407.470703"/>
       <use xlink:href="#DejaVuSans-73" x="468.994141"/>
      </g>
     </g>
    </g>
   </g>
   <g id="text_32">
    <!-- 3% -->
    <g style="fill: #ffffff" transform="translate(78.876652 203.878589) scale(0.1 -0.1)">
     <use xlink:href="#DejaVuSans-33"/>
     <use xlink:href="#DejaVuSans-25" x="63.623047"/>
    </g>
   </g>
   <g id="text_33">
    <!-- 100% -->
    <g style="fill: #ffffff" transform="translate(388.16808 215.312346) scale(0.1 -0.1)">
     <use xlink:href="#DejaVuSans-31"/>
     <use xlink:href="#DejaVuSans-30" x="63.623047"/>
     <use xlink:href="#DejaVuSans-30" x="127.246094"/>
     <use xlink:href="#DejaVuSans-25" x="190.869141"/>
    </g>
   </g>
   <g id="text_34">
    <!-- 0% -->
    <g style="fill: #ffffff" transform="translate(69.310938 226.746103) scale(0.1 -0.1)">
     <use xlink:href="#DejaVuSans-30"/>
     <use xlink:href="#DejaVuSans-25" x="63.623047"/>
    </g>
   </g>
   <g id="text_35">
    <!-- 0% -->
    <g style="fill: #ffffff" transform="translate(69.310938 238.179859) scale(0.1 -0.1)">
     <use xlink:href="#DejaVuSans-30"/>
     <use xlink:href="#DejaVuSans-25" x="63.623047"/>
    </g>
   </g>
   <g id="text_36">
    <!-- N2 -->
    <g style="fill: #ffffff" transform="translate(225.404687 188.373297) scale(0.12 -0.12)">
     <defs>
      <path id="DejaVuSans-32" d="M 1228 531 
L 3431 531 
L 3431 0 
L 469 0 
L 469 531 
Q 828 903 1448 1529 
Q 2069 2156 2228 2338 
Q 2531 2678 2651 2914 
Q 2772 3150 2772 3378 
Q 2772 3750 2511 3984 
Q 2250 4219 1831 4219 
Q 1534 4219 1204 4116 
Q 875 4013 500 3803 
L 500 4441 
Q 881 4594 1212 4672 
Q 1544 4750 1819 4750 
Q 2544 4750 2975 4387 
Q 3406 4025 3406 3419 
Q 3406 3131 3298 2873 
Q 3191 2616 2906 2266 
Q 2828 2175 2409 1742 
Q 1991 1309 1228 531 
z
" transform="scale(0.015625)"/>
     </defs>
     <use xlink:href="#DejaVuSans-4e"/>
     <use xlink:href="#DejaVuSans-32" x="74.804688"/>
    </g>
   </g>
  </g>
  <g id="axes_5">
   <g id="patch_54">
    <path d="M 66.310938 299.518125 
L 401.110938 299.518125 
L 401.110938 251.725022 
L 66.310938 251.725022 
z
" style="fill: #201c1c"/>
   </g>
   <g id="patch_55">
    <path d="M 66.310938 253.897435 
L 69.499509 253.897435 
L 69.499509 263.044441 
L 66.310938 263.044441 
z
" clip-path="url(#pc040b566a3)" style="fill: #1f77b4"/>
   </g>
   <g id="patch_56">
    <path d="M 66.310938 265.331192 
L 66.310938 265.331192 
L 66.310938 274.478198 
L 66.310938 274.478198 
z
" clip-path="url(#pc040b566a3)" style="fill: #1f77b4"/>
   </g>
   <g id="patch_57">
    <path d="M 66.310938 276.764949 
L 66.310938 276.764949 
L 66.310938 285.911954 
L 66.310938 285.911954 
z
" clip-path="url(#pc040b566a3)" style="fill: #1f77b4"/>
   </g>
   <g id="patch_58">
    <path d="M 66.310938 288.198706 
L 66.310938 288.198706 
L 66.310938 297.345711 
L 66.310938 297.345711 
z
" clip-path="url(#pc040b566a3)" style="fill: #1f77b4"/>
   </g>
   <g id="patch_59">
    <path d="M 66.310938 253.897435 
L 69.499509 253.897435 
L 69.499509 263.044441 
L 66.310938 263.044441 
z
" clip-path="url(#pc040b566a3)" style="fill: #ff7f0e"/>
   </g>
   <g id="patch_60">
    <path d="M 66.310938 265.331192 
L 66.310938 265.331192 
L 66.310938 274.478198 
L 66.310938 274.478198 
z
" clip-path="url(#pc040b566a3)" style="fill: #ff7f0e"/>
   </g>
   <g id="patch_61">
    <path d="M 66.310938 276.764949 
L 66.310938 276.764949 
L 66.310938 285.911954 
L 66.310938 285.911954 
z
" clip-path="url(#pc040b566a3)" style="fill: #ff7f0e"/>
   </g>
   <g id="patch_62">
    <path d="M 66.310938 288.198706 
L 66.310938 288.198706 
L 66.310938 297.345711 
L 66.310938 297.345711 
z
" clip-path="url(#pc040b566a3)" style="fill: #ff7f0e"/>
   </g>
   <g id="patch_63">
    <path d="M 66.310938 253.897435 
L 69.499509 253.897435 
L 69.499509 263.044441 
L 66.310938 263.044441 
z
" clip-path="url(#pc040b566a3)" style="fill: #800080"/>
   </g>
   <g id="patch_64">
    <path d="M 66.310938 265.331192 
L 66.310938 265.331192 
L 66.310938 274.478198 
L 66.310938 274.478198 
z
" clip-path="url(#pc040b566a3)" style="fill: #ffa500"/>
   </g>
   <g id="patch_65">
    <path d="M 66.310938 276.764949 
L 66.310938 276.764949 
L 66.310938 285.911954 
L 66.310938 285.911954 
z
" clip-path="url(#pc040b566a3)" style="fill: #008000"/>
   </g>
   <g id="patch_66">
    <path d="M 66.310938 288.198706 
L 66.310938 288.198706 
L 66.310938 297.345711 
L 66.310938 297.345711 
z
" clip-path="url(#pc040b566a3)" style="fill: #ff0000"/>
   </g>
   <g id="matplotlib.axis_9">
    <g id="ytick_17">
     <g id="text_37">
      <!-- Vocab -->
      <g style="fill: #ffffff" transform="translate(29.151563 262.270157) scale(0.1 -0.1)">
       <use xlink:href="#DejaVuSans-56"/>
       <use xlink:href="#DejaVuSans-6f" x="60.658203"/>
       <use xlink:href="#DejaVuSans-63" x="121.839844"/>
       <use xlink:href="#DejaVuSans-61" x="176.820312"/>
       <use xlink:href="#DejaVuSans-62" x="238.099609"/>
      </g>
     </g>
    </g>
    <g id="ytick_18">
     <g id="text_38">
      <!-- Kanji -->
      <g style="fill: #ffffff" transform="translate(34.90625 273.703914) scale(0.1 -0.1)">
       <use xlink:href="#DejaVuSans-4b"/>
       <use xlink:href="#DejaVuSans-61" x="63.826172"/>
       <use xlink:href="#DejaVuSans-6e" x="125.105469"/>
       <use xlink:href="#DejaVuSans-6a" x="188.484375"/>
       <use xlink:href="#DejaVuSans-69" x="216.267578"/>
      </g>
     </g>
    </g>
    <g id="ytick_19">
     <g id="text_39">
      <!-- Grammar -->
      <g style="fill: #ffffff" transform="translate(11.603125 285.13767) scale(0.1 -0.1)">
       <use xlink:href="#DejaVuSans-47"/>
       <use xlink:href="#DejaVuSans-72" x="77.490234"/>
       <use xlink:href="#DejaVuSans-61" x="118.603516"/>
       <use xlink:href="#DejaVuSans-6d" x="179.882812"/>
       <use xlink:href="#DejaVuSans-6d" x="277.294922"/>
       <use xlink:href="#DejaVuSans-61" x="374.707031"/>
       <use xlink:href="#DejaVuSans-72" x="435.986328"/>
      </g>
     </g>
    </g>
    <g id="ytick_20">
     <g id="text_40">
      <!-- Sentences -->
      <g style="fill: #ffffff" transform="translate(7.2 296.571427) scale(0.1 -0.1)">
       <use xlink:href="#DejaVuSans-53"/>
       <use xlink:href="#DejaVuSans-65" x="63.476562"/>
       <use xlink:href="#DejaVuSans-6e" x="125"/>
       <use xlink:href="#DejaVuSans-74" x="188.378906"/>
       <use xlink:href="#DejaVuSans-65" x="227.587891"/>
       <use xlink:href="#DejaVuSans-6e" x="289.111328"/>
       <use xlink:href="#DejaVuSans-63" x="352.490234"/>
       <use xlink:href="#DejaVuSans-65" x="407.470703"/>
       <use xlink:href="#DejaVuSans-73" x="468.994141"/>
      </g>
     </g>
    </g>
   </g>
   <g id="text_41">
    <!-- 1% -->
    <g style="fill: #ffffff" transform="translate(72.499509 261.230313) scale(0.1 -0.1)">
     <use xlink:href="#DejaVuSans-31"/>
     <use xlink:href="#DejaVuSans-25" x="63.623047"/>
    </g>
   </g>
   <g id="text_42">
    <!-- 0% -->
    <g style="fill: #ffffff" transform="translate(69.310938 272.66407) scale(0.1 -0.1)">
     <use xlink:href="#DejaVuSans-30"/>
     <use xlink:href="#DejaVuSans-25" x="63.623047"/>
    </g>
   </g>
   <g id="text_43">
    <!-- 0% -->
    <g style="fill: #ffffff" transform="translate(69.310938 284.097827) scale(0.1 -0.1)">
     <use xlink:href="#DejaVuSans-30"/>
     <use xlink:href="#DejaVuSans-25" x="63.623047"/>
    </g>
   </g>
   <g id="text_44">
    <!-- 0% -->
    <g style="fill: #ffffff" transform="translate(69.310938 295.531583) scale(0.1 -0.1)">
     <use xlink:href="#DejaVuSans-30"/>
     <use xlink:href="#DejaVuSans-25" x="63.623047"/>
    </g>
   </g>
   <g id="text_45">
    <!-- N1 -->
    <g style="fill: #ffffff" transform="translate(225.404687 245.725022) scale(0.12 -0.12)">
     <use xlink:href="#DejaVuSans-4e"/>
     <use xlink:href="#DejaVuSans-31" x="74.804688"/>
    </g>
   </g>
  </g>
 </g>
 <defs>
  <clipPath id="pa845f48d5d">
   <rect x="66.310938" y="22.318125" width="334.8" height="47.793103"/>
  </clipPath>
  <clipPath id="p92727446ff">
   <rect x="66.310938" y="79.669849" width="334.8" height="47.793103"/>
  </clipPath>
  <clipPath id="p30e7d4565f">
   <rect x="66.310938" y="137.021573" width="334.8" height="47.793103"/>
  </clipPath>
  <clipPath id="p0180415274">
   <rect x="66.310938" y="194.373297" width="334.8" height="47.793103"/>
  </clipPath>
  <clipPath id="pc040b566a3">
   <rect x="66.310938" y="251.725022" width="334.8" height="47.793103"/>
  </clipPath>
 </defs>
</svg>
